<?xml version="1.0" encoding="utf-8"?>
<!-- Generator: Adobe Illustrator 26.0.1, SVG Export Plug-In . SVG Version: 6.00 Build 0)  -->
<svg version="1.1" id="Capa_1" xmlns="http://www.w3.org/2000/svg" xmlns:xlink="http://www.w3.org/1999/xlink" x="0px" y="0px"
	 viewBox="0 0 640 512" style="enable-background:new 0 0 640 512;" xml:space="preserve">
<style type="text/css">
	.st0{fill:#FFFFFF;}
</style>
<path class="st0" d="M614.2,334.8c-3.7-9-12.5-15.7-22.2-15.7h-48V176c0-44.1-35.9-80-80-80H336c-17.7,0-32,14.3-32,32
	s14.3,32,32,32h128c8.8,0,16,7.2,16,16v143.1h-48c-9.7,0-18.5,5.8-22.2,14.8s-1.7,19.3,5.2,26.2l80,80c4.7,5.6,10.9,7.9,17,7.9
	c6.1,0,12.3-2.3,17-7l80-80C615.8,354.1,617.9,343.8,614.2,334.8z M304,352H176c-8.8,0-16-7.2-16-16V192h48
	c9.7,0,18.4-5.8,22.2-14.8s1.7-19.3-5.2-26.2l-80-80c-4.7-4.7-10.9-7-17-7s-12.3,2.3-17,7l-80,80c-6.8,6.9-8.9,17.2-5.2,26.2
	S38.3,192,48,192h48v144c0,44.1,35.9,80,80,80h128c17.7,0,32-14.3,32-32S321.7,352,304,352z"/>
</svg>
